<svg width="24" height="24" viewBox="0 0 24 24" fill="none" xmlns="http://www.w3.org/2000/svg">
          <path
            d="M1.82092 17.9378V22.1791H6.06221L18.5712 9.65881L14.3299 5.41753L1.82092 17.9378ZM24 19.1932L19.1932 24L13.312 18.1188L15.3139 16.1169L16.4449 17.2479L19.2385 14.443L20.8445 16.049L19.1932 17.655L20.3921 18.786L21.9981 17.2026L24 19.1932V19.1932ZM5.90386 10.6767L0 4.80679L4.80679 0L6.79736 2.00188L4.00377 4.80679L5.21395 6.00565L7.99623 3.20075L9.60226 4.80679L7.99623 6.40151L9.12724 7.53252L5.90386 10.6767V10.6767ZM21.8511 6.34496C22.2922 5.90386 22.2922 5.21395 21.8511 4.75024L19.2045 2.14892C18.7861 1.70782 18.0509 1.70782 17.6098 2.14892L15.5287 4.21866L19.77 8.45994L21.8511 6.34496Z"
            fill="#78350F" />
        </svg>